<?xml version="1.0" encoding="UTF-8" standalone="no"?>
<svg width="456" height="456" viewBox="0 0 456 456" version="1.1" xmlns="http://www.w3.org/2000/svg">
    <defs>
        <filter id="shadow" x="-20%" y="-20%" width="140%" height="140%">
            <feDropShadow dx="0" dy="6" stdDeviation="6" flood-color="#082746" flood-opacity="0.35" />
        </filter>
    </defs>

    <circle cx="226" cy="176" r="118" fill="#0a3765" filter="url(#shadow)" />

    <path d="M31 216
             C72 190 112 184 149 194
             C131 200 115 209 101 222
             C83 216 59 214 31 216Z"
          fill="#ffffff" />

    <path d="M20 223
             C86 219 132 247 171 303
             C198 342 237 370 324 384
             C257 387 210 376 173 353
             C137 331 111 299 81 270
             C61 251 41 235 20 223Z"
          fill="#ffffff" />

    <path d="M279 57
             C350 75 401 130 423 211
             C438 268 431 328 394 377
             C367 413 325 429 270 425
             C347 409 384 357 387 289
             C391 194 347 115 279 57Z"
          fill="#ffffff" />

    <path d="M247 63
             C316 75 368 127 392 205
             C410 262 405 317 375 359
             C349 397 308 414 252 412
             C330 395 365 346 365 283
             C366 197 325 124 247 63Z"
          fill="none"
          stroke="#ffffff"
          stroke-width="5"
          stroke-linecap="round" />

    <path d="M88 214
             L129 165
             L151 190
             L191 124
             L212 151
             L246 97
             L265 145
             L294 119
             L324 170
             L346 156
             L381 196
             L351 196
             L322 165
             L298 179
             L275 145
             L248 179
             L258 128
             L219 181
             L195 141
             L156 203
             L128 181
             L104 214Z"
          fill="#ffffff" />

    <text x="226" y="265"
          text-anchor="middle"
          font-size="76"
          font-weight="700"
          font-family="Arial, Helvetica, sans-serif"
          fill="#ffffff">ST</text>

    <text x="228" y="408"
          text-anchor="middle"
          font-size="46"
          font-weight="700"
          font-family="Arial, Helvetica, sans-serif"
          fill="#ffffff">smartTOUR</text>
</svg>
