<svg xmlns="http://www.w3.org/2000/svg" viewBox="0 0 64 64">
  <g fill="none" fill-rule="evenodd">
    <path
      d="M17 16.5 28 12l8 4 11-4.5c1-.4 2 .3 2 1.4v27.8c0 .6-.4 1.2-1 1.4L37 46.5l-8-4-11 4.5c-1 .4-2-.3-2-1.4V17.9c0-.6.4-1.2 1-1.4Z"
      stroke="#FFFFFF"
      stroke-linecap="round"
      stroke-linejoin="round"
      stroke-width="3.2"/>
    <path d="M28 12v30.5M36 16v30.5" stroke="#FFFFFF" stroke-linecap="round" stroke-width="3.2"/>
    <path
      d="M41.5 20.5c-5.2 0-9.5 4.3-9.5 9.5 0 6.5 7.7 13.2 9 14.2.3.2.7.2 1 0 1.3-1 9-7.7 9-14.2 0-5.2-4.3-9.5-9.5-9.5Z"
      fill="#FFFFFF"/>
    <circle cx="41.5" cy="30" r="3.2" fill="#3C3C3C"/>
  </g>
</svg>
