<?xml version="1.0" encoding="UTF-8" standalone="no"?>
<svg width="512" height="512" viewBox="0 0 512 512" version="1.1" xmlns="http://www.w3.org/2000/svg">
    <rect x="0" y="0" width="512" height="512" fill="#0f4e8a" />

    <circle cx="256" cy="186" r="126" fill="#0a3765" />

    <path d="M33 230
             C79 201 122 194 164 205
             C142 213 124 225 108 239
             C88 233 63 229 33 230Z"
          fill="#ffffff" />

    <path d="M22 240
             C95 235 145 267 188 328
             C218 369 262 400 360 416
             C284 420 232 408 191 381
             C152 356 124 322 90 291
             C68 270 45 253 22 240Z"
          fill="#ffffff" />

    <path d="M312 62
             C390 83 446 143 470 231
             C486 289 478 354 438 407
             C409 445 363 462 302 457
             C388 440 430 383 433 309
             C438 206 390 123 312 62Z"
          fill="#ffffff" />

    <path d="M275 67
             C349 81 405 138 430 223
             C447 280 442 336 410 380
             C382 419 338 438 278 435
             C363 417 403 359 404 293
             C405 202 361 128 275 67Z"
          fill="none"
          stroke="#ffffff"
          stroke-width="6"
          stroke-linecap="round" />

    <path d="M100 228
             L145 173
             L170 201
             L215 128
             L239 159
             L278 99
             L299 152
             L332 124
             L366 180
             L390 165
             L429 207
             L395 207
             L362 173
             L336 188
             L310 152
             L279 189
             L291 133
             L247 191
             L220 148
             L177 216
             L146 192
             L119 228Z"
          fill="#ffffff" />

    <text x="256" y="282"
          text-anchor="middle"
          font-size="84"
          font-weight="700"
          font-family="Arial, Helvetica, sans-serif"
          fill="#ffffff">ST</text>

    <text x="256" y="458"
          text-anchor="middle"
          font-size="50"
          font-weight="700"
          font-family="Arial, Helvetica, sans-serif"
          fill="#ffffff">smartTOUR</text>
</svg>
